<svg width="38" height="39" viewBox="0 0 38 39" fill="none" xmlns="http://www.w3.org/2000/svg">
<path d="M36.2922 6.92238L29.9084 0.465177L27.3124 2.47018L33.9629 8.78455L36.2922 6.92238Z" fill="#D70202"/>
<path d="M10.1315 36.3439L3.17137 30.2096L1.28939 31.8565L7.26686 38.189L10.1315 36.3439Z" fill="#D70202"/>
<path d="M18.4001 17.3227C18.4001 17.3227 16.4718 13.9373 14.7554 16.6853C12.8025 19.8117 18.2382 23.6874 18.2382 23.6874C18.2382 23.6874 22.3002 20.642 22.5468 18.7512C22.6465 17.9872 22.9406 16.3838 21.1399 15.7097C20.1066 15.4779 18.4001 17.3227 18.4001 17.3227Z" fill="#D70202"/>
<path d="M7.30522 39.0001C7.15986 39.0001 7.01547 38.9441 6.9062 38.8349L0.554821 32.4835C0.44475 32.3734 0.385042 32.2227 0.389876 32.067C0.394712 31.9113 0.463766 31.7647 0.580526 31.6617L5.82652 27.0334C6.95672 26.0362 8.46596 25.5377 9.96802 25.6669L23.1253 26.7946C24.3362 26.8985 25.3321 27.7793 25.6034 28.9399L32.2974 22.2459C32.8607 21.6827 33.6097 21.3724 34.4063 21.3724C35.2029 21.3724 35.9519 21.6827 36.5152 22.2459C37.6779 23.4088 37.6779 25.3007 36.5152 26.4636L26.894 36.0849C25.7634 37.2154 24.2002 37.8032 22.6047 37.6964L10.4061 36.8832L7.63632 38.8926C7.53689 38.9647 7.42078 39.0001 7.30522 39.0001ZM1.77712 32.1104L7.36356 37.6968L9.90888 35.8502C10.0156 35.7729 10.1456 35.7348 10.2776 35.744L22.6798 36.5709C23.9508 36.6555 25.1959 36.1877 26.0963 35.2871L35.7175 25.6659C36.4404 24.943 36.4405 23.7667 35.7175 23.0438C35.3672 22.6935 34.9016 22.5006 34.4064 22.5006C33.9111 22.5006 33.4455 22.6935 33.0953 23.0436L25.4397 30.6991C25.3146 30.9828 25.1415 31.2468 24.9246 31.4788C24.3675 32.0746 23.5808 32.3971 22.766 32.3605L14.124 31.9847C13.8128 31.9712 13.5715 31.708 13.585 31.3968C13.5986 31.0856 13.8609 30.8434 14.173 30.8578L22.8149 31.2335C23.3001 31.254 23.7688 31.0632 24.1005 30.7083C24.1925 30.6099 24.2712 30.5019 24.3359 30.3869C24.3473 30.2743 24.3924 30.1644 24.4715 30.0738C24.5403 29.8558 24.5641 29.6233 24.5382 29.3904C24.4509 28.6051 23.8162 27.9862 23.029 27.9187L9.87166 26.791C8.67515 26.6884 7.47299 27.0851 6.57285 27.8794L1.77712 32.1104Z" fill="#121822"/>
<path d="M10.2397 36.8709C10.1085 36.8709 9.97658 36.8254 9.86973 36.7323L5.83435 33.221C5.59938 33.0166 5.57464 32.6603 5.77908 32.4253C5.98359 32.1903 6.3398 32.1655 6.57478 32.37L10.6102 35.8814C10.8451 36.0858 10.8699 36.4421 10.6654 36.6771C10.5539 36.8054 10.3973 36.8709 10.2397 36.8709Z" fill="#121822"/>
<path d="M2.98238 17.6262C2.21866 17.6262 1.45493 17.3355 0.873555 16.7541C0.310229 16.1908 0 15.4419 0 14.6452C0 13.8485 0.310229 13.0997 0.873475 12.5364L10.4947 2.91521C11.6253 1.78461 13.1886 1.19703 14.7839 1.30364L26.9825 2.11692L29.7523 0.107528C29.9767 -0.0553221 30.2862 -0.0309069 30.4824 0.165222L36.8338 6.5166C36.9439 6.62667 37.0035 6.77743 36.9987 6.93303C36.9939 7.08863 36.9249 7.23536 36.8081 7.33834L31.5621 11.9666C30.432 12.9638 28.9221 13.4617 27.4206 13.3332L14.2633 12.2054C13.0525 12.1016 12.0565 11.2209 11.7852 10.06L5.09121 16.754C4.50975 17.3355 3.74603 17.6262 2.98238 17.6262ZM14.4149 2.41933C13.2478 2.41933 12.1234 2.88193 11.2925 3.71286L1.67121 13.3341C1.32101 13.6843 1.1281 14.15 1.1281 14.6452C1.1281 15.1405 1.32101 15.6061 1.67121 15.9563C2.0214 16.3065 2.48706 16.4994 2.9823 16.4994C3.47762 16.4994 3.94328 16.3065 4.29348 15.9563L11.9489 8.30093C12.0741 8.01722 12.2471 7.75332 12.464 7.52134C13.021 6.92554 13.8072 6.60394 14.6227 6.63964L23.2645 7.01538C23.5757 7.02884 23.8171 7.29217 23.8035 7.60336C23.7901 7.91456 23.527 8.15734 23.2155 8.14235L14.5736 7.76662C14.0878 7.74631 13.6197 7.93696 13.288 8.29175C13.1961 8.39013 13.1173 8.49811 13.0528 8.61309C13.0413 8.72574 12.9961 8.83557 12.9171 8.92623C12.8483 9.14427 12.8246 9.37666 12.8505 9.60961C12.9377 10.3949 13.5724 11.0139 14.3596 11.0813L27.5169 12.2091C28.7135 12.3121 29.9157 11.915 30.8158 11.1206L35.6115 6.8896L30.0251 1.30323L27.4798 3.14978C27.3731 3.22721 27.2423 3.26476 27.111 3.25598L14.7089 2.42916C14.6108 2.42264 14.5126 2.41933 14.4149 2.41933Z" fill="#121822"/>
<path d="M31.1838 6.76861C31.0525 6.76861 30.9205 6.72308 30.8138 6.6301L26.7784 3.11879C26.5433 2.91429 26.5186 2.55805 26.723 2.32309C26.9276 2.08804 27.2839 2.0633 27.5188 2.26781L31.5542 5.7791C31.7893 5.98362 31.814 6.33985 31.6096 6.57482C31.498 6.70302 31.3413 6.76861 31.1838 6.76861Z" fill="#121822"/>
<path d="M24.317 28.2896C24.2218 28.1833 24.1743 28.0495 24.1735 27.9166C24.1727 27.761 24.2364 27.6055 24.3613 27.4935C24.5933 27.2856 24.9503 27.3058 25.1582 27.5378C25.2533 27.6441 25.3009 27.7779 25.3016 27.9109C25.3024 28.0664 25.2388 28.222 25.1139 28.334C25.0059 28.4307 24.8722 28.4774 24.7376 28.4774C24.5829 28.4774 24.429 28.4145 24.317 28.2896ZM25.9076 26.691C25.7496 26.5814 25.6651 26.4048 25.6659 26.2267C25.6659 26.1156 25.6989 26.0035 25.7674 25.9061C25.9455 25.6507 26.2968 25.5878 26.5522 25.7659C26.7101 25.8755 26.7949 26.052 26.794 26.2301C26.794 26.3413 26.7609 26.4533 26.6924 26.5507C26.5829 26.7079 26.4072 26.7925 26.2291 26.7925C26.1179 26.7925 26.0059 26.7594 25.9076 26.691ZM27.0864 24.7699C26.8648 24.682 26.7287 24.4701 26.7287 24.2453C26.7287 24.1761 26.7416 24.106 26.7682 24.0382C26.8826 23.7481 27.2097 23.6056 27.4998 23.72C27.7214 23.8071 27.8568 24.0198 27.8575 24.2446C27.8575 24.3131 27.8446 24.3832 27.818 24.4517C27.731 24.6733 27.5183 24.8094 27.2927 24.8094C27.2242 24.8095 27.1541 24.7965 27.0864 24.7699ZM27.7875 22.6274C27.5047 22.5871 27.3016 22.3454 27.3016 22.069C27.3016 22.0424 27.3033 22.0166 27.3072 21.99C27.3508 21.6814 27.636 21.4662 27.9446 21.5098C28.2267 21.55 28.4297 21.7918 28.4297 22.0682C28.4297 22.0948 28.4281 22.1205 28.4241 22.1471C28.3846 22.4291 28.143 22.633 27.8665 22.633C27.8407 22.633 27.8141 22.6306 27.7875 22.6274ZM27.3588 19.87C27.3571 19.853 27.3564 19.8361 27.3564 19.8192C27.3556 19.5299 27.5755 19.2834 27.8688 19.2568C28.1791 19.2286 28.4539 19.4566 28.482 19.7668C28.4837 19.7838 28.4844 19.8007 28.4844 19.8176C28.4852 20.107 28.2644 20.3534 27.9711 20.38C27.9542 20.3816 27.9365 20.3824 27.9196 20.3824C27.6312 20.3824 27.3853 20.1625 27.3588 19.87ZM26.9213 17.7959C26.9011 17.7362 26.8915 17.675 26.8915 17.6154C26.8915 17.3801 27.0397 17.1609 27.2751 17.0811C27.57 16.982 27.8907 17.14 27.9897 17.4357C28.0099 17.4953 28.0196 17.5566 28.0196 17.6162C28.0196 17.8515 27.8713 18.0707 27.636 18.1504C27.5764 18.1706 27.5151 18.1802 27.4555 18.1802C27.2202 18.1802 27.0002 18.0312 26.9213 17.7959ZM26.0132 15.8813C25.9551 15.7887 25.9269 15.6855 25.9269 15.5832C25.9269 15.3954 26.0204 15.2109 26.1913 15.1037C26.4555 14.9386 26.8037 15.0183 26.9687 15.2826C27.0268 15.3753 27.055 15.4784 27.055 15.58C27.0558 15.7685 26.9615 15.9522 26.7906 16.0602C26.6972 16.1182 26.5941 16.1456 26.4917 16.1456C26.3039 16.1456 26.1203 16.0522 26.0132 15.8813ZM24.6868 14.227C24.574 14.1158 24.5175 13.9692 24.5184 13.8225C24.5192 13.6807 24.5732 13.5389 24.6812 13.4301C24.9003 13.2077 25.2574 13.2053 25.4789 13.4245C25.5916 13.5357 25.6473 13.6823 25.6465 13.829C25.6456 13.9708 25.5916 14.1126 25.4844 14.2222C25.3741 14.3342 25.2283 14.3898 25.0824 14.3898C24.9398 14.3898 24.7963 14.3358 24.6868 14.227Z" fill="#121822"/>
<path d="M9.18523 25.3797C9.14251 25.2975 9.12237 25.2097 9.12237 25.1228C9.12156 24.9181 9.23357 24.7199 9.42857 24.62C9.70577 24.4773 10.0458 24.5861 10.1884 24.8633C10.2303 24.9456 10.2505 25.0333 10.2505 25.1204C10.2513 25.325 10.1393 25.5232 9.94427 25.6232C9.86208 25.6658 9.77345 25.6859 9.68643 25.6859C9.48256 25.6859 9.28514 25.5739 9.18523 25.3797ZM8.35043 23.1469C8.33996 23.1018 8.33432 23.0574 8.33432 23.0132C8.33432 22.7585 8.50675 22.5281 8.76459 22.4652C9.06677 22.3911 9.37217 22.5764 9.4463 22.8786C9.45758 22.9238 9.46242 22.9688 9.46242 23.0132C9.46322 23.267 9.28998 23.4974 9.03294 23.5611C8.98781 23.5716 8.94268 23.5772 8.89837 23.5772C8.64454 23.5772 8.41409 23.4047 8.35043 23.1469ZM8.05793 20.7827C8.05793 20.7803 8.05793 20.7778 8.05793 20.7755C8.05954 20.4677 8.30933 20.217 8.61795 20.2146C8.92979 20.2122 9.18443 20.4636 9.18602 20.7746C9.18602 20.777 9.18602 20.7795 9.18602 20.7819C9.18443 21.0905 8.93544 21.3403 8.62601 21.3427C8.6252 21.3427 8.6236 21.3427 8.62198 21.3427C8.31256 21.3427 8.06035 21.0929 8.05793 20.7827ZM8.73963 19.0914C8.47854 19.0317 8.30209 18.7997 8.30128 18.5426C8.30128 18.5007 8.30611 18.458 8.31577 18.4153C8.38589 18.1115 8.68805 17.9222 8.99183 17.9915C9.25291 18.0511 9.42938 18.2832 9.43018 18.5402C9.43018 18.5821 9.42535 18.6248 9.41568 18.6675C9.35605 18.9286 9.12318 19.1059 8.86614 19.1059C8.82423 19.1059 8.78233 19.101 8.73963 19.0914ZM9.37136 16.927C9.17313 16.8287 9.05791 16.6289 9.05791 16.4218C9.05791 16.3372 9.07645 16.2518 9.11673 16.1712C9.25452 15.8916 9.59295 15.778 9.87256 15.9158C10.0708 16.0141 10.186 16.2139 10.186 16.421C10.186 16.5056 10.1675 16.591 10.1272 16.6716C10.0289 16.8706 9.82905 16.9858 9.62116 16.9858C9.53735 16.9858 9.45194 16.9665 9.37136 16.927ZM10.489 14.969C10.3536 14.857 10.2843 14.695 10.2851 14.533C10.2851 14.4065 10.3278 14.2792 10.4149 14.1745C10.6139 13.9351 10.97 13.9021 11.2094 14.1011C11.3439 14.2131 11.4132 14.3743 11.4132 14.5371C11.4124 14.6636 11.3697 14.7901 11.2827 14.8956C11.1715 15.0294 11.0111 15.0987 10.8492 15.0987C10.7219 15.0987 10.5937 15.056 10.489 14.969ZM12.0272 13.3211C11.9515 13.2196 11.9144 13.1011 11.9136 12.9835C11.9128 12.8119 11.991 12.6419 12.1384 12.5307C12.3874 12.3437 12.7412 12.3929 12.9281 12.6419C13.0047 12.7426 13.0417 12.861 13.0417 12.9787C13.0425 13.1503 12.9652 13.3203 12.8177 13.4315C12.7162 13.5081 12.5961 13.5451 12.4785 13.5451C12.3068 13.5451 12.1384 13.4678 12.0272 13.3211ZM13.9039 12.0706C13.8717 11.9972 13.8564 11.9207 13.8564 11.8449C13.8564 11.6282 13.9829 11.4211 14.1948 11.3284C14.48 11.2035 14.8128 11.3332 14.9377 11.6193C14.97 11.6926 14.9853 11.7692 14.9853 11.8449C14.9853 12.0617 14.8588 12.2688 14.6468 12.3614C14.5735 12.3936 14.497 12.409 14.4212 12.409C14.2037 12.409 13.9966 12.2825 13.9039 12.0706Z" fill="#121822"/>
<path d="M18.37 24.496C18.3698 24.496 18.3703 24.496 18.37 24.496C18.2201 24.4958 18.0758 24.436 17.9701 24.3297C17.5422 23.8995 17.0962 23.5022 16.6648 23.118C15.0185 21.6513 13.4635 20.2659 13.7008 17.7131C13.8392 16.2234 14.9414 15.1422 16.3215 15.1422C17.3191 15.1422 17.9325 15.5717 18.3738 16.1567C18.8198 15.5719 19.4352 15.1422 20.429 15.1422C21.78 15.1422 22.8318 16.1647 23.0466 17.6865C23.3996 20.1893 21.7972 21.6049 20.1008 23.1036C19.6586 23.4943 19.2013 23.8982 18.7688 24.3307C18.6631 24.4366 18.5196 24.496 18.37 24.496ZM16.3215 16.2703C15.3915 16.2703 14.8933 17.0723 14.8241 17.8175C14.6395 19.8029 15.8644 20.8941 17.4153 22.2756C17.729 22.5551 18.0501 22.8413 18.3712 23.1455C18.6997 22.8361 19.0307 22.5437 19.354 22.2581C20.9429 20.8544 22.1978 19.7457 21.9296 17.8441C21.8272 17.1181 21.3727 16.2703 20.4291 16.2703C19.7138 16.2703 19.3504 16.5581 18.8735 17.5023C18.7772 17.693 18.5787 17.815 18.3677 17.812C18.1541 17.8112 17.9592 17.6896 17.8645 17.4981C17.3988 16.5572 17.0383 16.2703 16.3215 16.2703Z" fill="#121822"/>
<rect x="32.8554" y="13.2062" width="1.69941" height="2.26589" fill="#121822"/>
<rect x="34.5549" y="12.0733" width="1.13294" height="1.13294" fill="#121822"/>
<rect x="32.8554" y="16.605" width="1.69941" height="1.69941" fill="#121822"/>
<rect x="34.5549" y="15.4721" width="1.13294" height="1.13294" fill="#121822"/>
<rect x="2.83239" y="23.9693" width="1.69941" height="1.69941" fill="#121822"/>
<rect x="4.53193" y="22.2698" width="1.69941" height="1.69941" fill="#121822"/>
</svg>
