<svg preserveAspectRatio="none" overflow="visible" style="display: block;" width="13.3218" height="11.0152" viewBox="0 0 13.3218 11.0152" fill="none" xmlns="http://www.w3.org/2000/svg">
<path id="Vector" d="M0.816737 4.79715C0.816737 4.79715 6.70865 2.3791 8.75206 1.52765C9.53541 1.1871 12.1919 0.0972359 12.1919 0.0972359C12.1919 0.0972359 13.4179 -0.379539 13.3158 0.77839C13.2817 1.25521 13.0092 2.92399 12.7368 4.72904C12.3281 7.28335 11.8853 10.076 11.8853 10.076C11.8853 10.076 11.8172 10.8594 11.2383 10.9956C10.6593 11.1318 9.70566 10.5188 9.53541 10.3825C9.39914 10.2804 6.9811 8.7478 6.09561 7.99853C5.8572 7.7942 5.58476 7.38554 6.12964 6.90872C7.35573 5.78482 8.82018 4.38848 9.70566 3.503C10.1144 3.09429 10.523 2.14069 8.82018 3.29862C6.40213 4.96745 4.01812 6.53408 4.01812 6.53408C4.01812 6.53408 3.47319 6.87464 2.45149 6.56812C1.42973 6.26164 0.237727 5.85293 0.237727 5.85293C0.237727 5.85293 -0.5796 5.34208 0.816737 4.79715Z" fill="#D70202"/>
</svg>
